<svg id="Layer_1" data-name="Layer 1" xmlns="http://www.w3.org/2000/svg" viewBox="0 0 1529.05 426.15"><defs><style>.cls-1{fill:#033fd5;}.cls-2{fill:#021d49;}</style></defs><title>JKIII_Logo</title><polygon class="cls-1" points="941.99 128.39 941.66 108.9 954.54 123.78 972.6 117.16 962.31 133.52 974.04 149.2 954.68 144.43 943.43 160.42 942.25 140.88 923.98 134.99 941.99 128.39"/><polygon class="cls-1" points="866.79 80.56 857.2 63.6 875.63 70.53 888.34 56.09 887.1 75.37 904.89 83.56 885.6 88.6 883.35 108.02 872.98 91.41 854.11 94.96 866.79 80.56"/><polygon class="cls-1" points="590.33 128.39 590.66 108.9 577.77 123.78 559.72 117.16 570 133.52 558.27 149.2 577.63 144.43 588.88 160.42 590.07 140.88 608.34 134.99 590.33 128.39"/><polygon class="cls-1" points="665.52 80.56 675.11 63.6 656.69 70.53 643.98 56.09 645.22 75.37 627.43 83.56 646.72 88.6 648.97 108.02 659.34 91.41 678.2 94.96 665.52 80.56"/><polygon class="cls-1" points="749.84 44.78 765.4 0 782.37 44.78 829.16 44.78 791.97 73.53 805.63 119.17 765.4 92.06 726.31 119.17 739.98 73.53 703.16 44.78 749.84 44.78"/><path class="cls-2" d="M423,689.79a33.14,33.14,0,0,1-9.68,13,37.31,37.31,0,0,1-14.69,7,78,78,0,0,1-18.36,2.06,123.68,123.68,0,0,1-20.43-1.61,104.42,104.42,0,0,1-15.05-3.4l10.57-33.33a82,82,0,0,0,8.69,2.42,49.35,49.35,0,0,0,11,1.16,12.93,12.93,0,0,0,6.9-1.52,8.9,8.9,0,0,0,3.58-4.57,24,24,0,0,0,1.35-7.61c.11-3.05.18-6.6.18-10.66V610.78H361.49v-31.9h65v90.84Q426.52,681.72,423,689.79Z" transform="translate(-341.15 -383.37)"/><path class="cls-2" d="M571.1,644.1a98.41,98.41,0,0,1-3.76,28.31,55.15,55.15,0,0,1-11.64,21.32,50.75,50.75,0,0,1-20.16,13.43q-12.27,4.67-29.11,4.66-17,0-29.21-4.66a50.74,50.74,0,0,1-20.06-13.43,55,55,0,0,1-11.65-21.32,108.8,108.8,0,0,1,0-56.71,55.06,55.06,0,0,1,11.65-21.41,50.74,50.74,0,0,1,20.06-13.43q12.19-4.67,29.21-4.66,16.83,0,29.11,4.66a50.75,50.75,0,0,1,20.16,13.43,55.17,55.17,0,0,1,11.64,21.41A99.34,99.34,0,0,1,571.1,644.1Zm-40.84,0q0-15.95-6.27-23.65t-17.56-7.7q-11.3,0-17.56,7.7T482.6,644.1q0,15.76,6.27,23.47t17.56,7.7q11.28,0,17.56-7.7T530.26,644.1Z" transform="translate(-341.15 -383.37)"/><path class="cls-2" d="M587.23,709.14V578.88h91.19v32.61H626.64V627.8h46.05v31.53H626.64v17.2h51.78v32.61Z" transform="translate(-341.15 -383.37)"/><path class="cls-2" d="M809.39,629.41l43.18,79.73H808.31l-25.62-48.92-8.42,9.68v39.24H734.86V578.88h39.41v40l33.15-40H853.1Z" transform="translate(-341.15 -383.37)"/><path class="cls-2" d="M864.21,709.14V578.88H955.4v32.61H903.62V627.8h46v31.53h-46v17.2H955.4v32.61Z" transform="translate(-341.15 -383.37)"/><path class="cls-2" d="M1050.36,709.14l-38.52-66.29v66.29H974.21V578.88h41.93l37.26,64.32V578.88H1091V709.14Z" transform="translate(-341.15 -383.37)"/><path class="cls-2" d="M1186.88,709.14l-38.52-66.29v66.29h-37.63V578.88h41.93l37.26,64.32V578.88h37.63V709.14Z" transform="translate(-341.15 -383.37)"/><path class="cls-2" d="M1247.25,709.14V578.88h91.2v32.61h-51.78V627.8h46v31.53h-46v17.2h51.78v32.61Z" transform="translate(-341.15 -383.37)"/><path class="cls-2" d="M1474.61,644.1q0,19.17-4.57,31.8t-13.7,20q-9.15,7.35-22.58,10.3a146.26,146.26,0,0,1-31.17,3h-45.33V578.88h45q18.63,0,32.34,3.32t22.57,10.93a45.32,45.32,0,0,1,13.17,20.06Q1474.62,625.66,1474.61,644.1Zm-40.85-.18a60.64,60.64,0,0,0-1.25-13,19.49,19.49,0,0,0-4.84-9.41,22.14,22.14,0,0,0-9.85-5.64,57.62,57.62,0,0,0-16.13-1.88h-5v60h5a58.42,58.42,0,0,0,16.31-1.88,21.39,21.39,0,0,0,9.76-5.64,19.9,19.9,0,0,0,4.75-9.41A61.61,61.61,0,0,0,1433.76,643.92Z" transform="translate(-341.15 -383.37)"/><path class="cls-2" d="M1557,654.85v54.29h-39.42v-52l-41.92-78.3h43.18l19,39.6,20.42-39.6h40.85Z" transform="translate(-341.15 -383.37)"/><path class="cls-2" d="M1644.1,709.14V677.25h13.79V610.78H1644.1v-31.9h67v31.9h-13.79v66.47h13.79v31.89Z" transform="translate(-341.15 -383.37)"/><path class="cls-2" d="M1723.64,709.14V677.25h13.8V610.78h-13.8v-31.9h67v31.9h-13.8v66.47h13.8v31.89Z" transform="translate(-341.15 -383.37)"/><path class="cls-2" d="M1803.19,709.14V677.25H1817V610.78h-13.8v-31.9h67v31.9H1856.4v66.47h13.79v31.89Z" transform="translate(-341.15 -383.37)"/><path class="cls-2" d="M376.35,748.57h2.34v12.77h-2c-2.61-6.39-6-11.74-13.59-11.74-6.38,0-8.58,2.13-8.58,21.48,0,17.37.07,22.31,8.85,22.31,7.83,0,11.74-5.56,13.93-12.56h2.34v13.59h-2.47l-2.68-2.54a20.31,20.31,0,0,1-10.91,3.57c-12.15,0-22.44-10.64-22.44-24.37,0-8.58,9.26-23.54,21.75-23.54A17.24,17.24,0,0,1,374,751.25Z" transform="translate(-341.15 -383.37)"/><path class="cls-2" d="M418.84,781.38c0,8.85-7.62,14.07-16.47,14.07-9.82,0-16.47-6.52-16.47-14.07,0-9,8.23-14.55,16.47-14.55S418.84,772.39,418.84,781.38ZM407.72,774c0-4.18-.75-5.35-5.35-5.35-4.19,0-5.35,1.17-5.35,5.35v14.62c0,4,2.05,5.08,5.35,5.08s5.35-1.1,5.35-5.08Z" transform="translate(-341.15 -383.37)"/><path class="cls-2" d="M435.93,773.28c2.95-5.08,6.59-6.45,11.26-6.45,4.18,0,7.75,1.23,7.75,6.59v19.07h4.26v1.93H442v-1.93h3.71V775c0-4.39-1-5.35-2.95-5.35-4.4,0-6.87,5.63-6.87,9.4v13.45h3.64v1.93H422.34v-1.93h4.4V769.16h-4.4v-1.92h4.4c3.08,0,6.1-.28,9.19-.28Z" transform="translate(-341.15 -383.37)"/><path class="cls-2" d="M485.62,788.51c4.74,0,6.25,3.71,6.25,7.9,0,9.4-9.06,13.11-17.16,13.11-4,0-13.59-1.93-13.59-7.21,0-2.13,1.37-4,4.39-5.42a7.79,7.79,0,0,1-4.39-6.73c0-4.25,2.68-6.18,6.45-7.21-3.22-1.78-4.66-4.11-4.66-6.93,0-3.77,4.59-9.19,12.9-9.19a17,17,0,0,1,9.88,3.09c1.44-1.86,2.54-3.92,5.15-3.92a3.22,3.22,0,0,1,3,3.23c0,1.85-.62,3.29-2.68,3.29a4.36,4.36,0,0,1-3.29-1.92l-.62.55a8,8,0,0,1,1.92,4.8c0,7.14-8.37,8.93-13.93,8.93a34.49,34.49,0,0,1-6.45-.48c-1.37-.35-4.67.89-4.67,2.74,0,1.37,2.27,1.37,3.43,1.37Zm-18.46,8.79v.07c-3.22,6.86,2.2,10.36,7.89,10.36,5.36,0,14.07-1.78,14.07-8.65,0-1.78-2.19-1.78-3.5-1.78ZM472,781.17c0,2,2.6,2.06,4.11,2.06s3.5-.55,3.5-2.06v-9.06c0-2.88-1.37-3.5-3.63-3.5-2.82,0-4,.62-4,3.5Z" transform="translate(-341.15 -383.37)"/><path class="cls-2" d="M509,774.17h.14c1.23-3.91,3.91-7.34,8.44-7.34a5.32,5.32,0,0,1,5.69,5.69,4.75,4.75,0,0,1-4.87,4.81,4.05,4.05,0,0,1-4.32-4.12,6.94,6.94,0,0,1,.82-3.09c.21-.48-1.58-1.23-4.18,3.64a11.15,11.15,0,0,0-1.72,6.38v12.35h5.15v1.93H496v-1.93h3.5V769.16h-3.64v-1.92h3.64c3.16,0,6.31-.28,9.47-.28Z" transform="translate(-341.15 -383.37)"/><path class="cls-2" d="M537.92,780v8.86c0,3.57,2,4.8,5.56,4.8,5.42,0,9.68-2.68,11.26-8l1.58.55c-1.79,6.38-6.94,9.27-13.32,9.27-8.51,0-16.19-4.81-16.19-14.14s8.23-14.48,16.05-14.48c6.8,0,13.32,4.73,13.32,11.87,0,1.65-2.13,1.3-3.23,1.3Zm9-1.78v-6.73c0-1.78-1.51-2.88-4.8-2.88-3,0-4.19,1.31-4.19,3.16v6.45Z" transform="translate(-341.15 -383.37)"/><path class="cls-2" d="M563,794.42h-1.72v-9.68H563c.9,4.87,5,8.92,10,8.92,2.41,0,6.46-1.58,6.46-4.66,0-3.51-3.23-3.23-5.91-3.51-6-.61-12.62-1.78-12.62-9.47,0-5.83,4.32-9.19,9.81-9.19,2.61,0,3.91.75,6.31,1.37.55.14,1.51-.76,2-1.37h1.38v7.89h-1.93c-1.44-4.19-3.22-6.11-7.75-6.11-2.13,0-6.31.76-6.31,3.71,0,1.51,2.6,2.67,5.62,2.88,7.69.55,13,2.4,13,9.47,0,5.49-3.15,10.78-10.15,10.78a15.37,15.37,0,0,1-8.1-2.48Z" transform="translate(-341.15 -383.37)"/><path class="cls-2" d="M589.67,794.42H588v-9.68h1.78c.9,4.87,5,8.92,10,8.92,2.41,0,6.46-1.58,6.46-4.66,0-3.51-3.23-3.23-5.91-3.51-6-.61-12.63-1.78-12.63-9.47,0-5.83,4.33-9.19,9.82-9.19,2.61,0,3.91.75,6.31,1.37.55.14,1.51-.76,2-1.37h1.38v7.89h-1.93c-1.44-4.19-3.22-6.11-7.75-6.11-2.13,0-6.32.76-6.32,3.71,0,1.51,2.61,2.67,5.63,2.88,7.69.55,13,2.4,13,9.47,0,5.49-3.16,10.78-10.15,10.78a15.37,15.37,0,0,1-8.1-2.48Z" transform="translate(-341.15 -383.37)"/><path class="cls-2" d="M626.39,773.55c2.2-3.7,5.7-6.72,10.23-6.72,4.12,0,7.69,2.06,8.44,6.45,2.54-3.71,6.52-6.45,11.19-6.45,3.5,0,7.89,1.51,7.89,5.56v20.1h4.46v1.93H651.38v-1.93h3.56V773.42c0-1.86-.2-3.78-2.67-3.78-4,0-7,5.22-7,8.78v14.07h3.56v1.93H632.5v-1.93h3.57v-17c0-4.53-.48-5.83-3-5.83-2.2,0-6.66,3-6.66,9.06v13.79H630v1.93H613.42v-1.93h3.78V769.16h-4.4v-1.92h4.4c3.09,0,6.11-.28,9.19-.28Z" transform="translate(-341.15 -383.37)"/><path class="cls-2" d="M689.81,774.31c0-3.57.28-5.7-4.8-5.7-.76,0-3.64.41-3.64,1.65a3.73,3.73,0,0,0,.69,1.44,3.66,3.66,0,0,1,.68,1.72c0,2.88-1.44,4.8-4.39,4.8A4.11,4.11,0,0,1,674,774.1c0-5.42,7.41-7.27,11.67-7.27,8.85,0,12.62,2.54,12.62,4.53V788c0,1.44.07,3.16,2,3.16a2.6,2.6,0,0,0,1.72-1l1.23,1.3a7.44,7.44,0,0,1-7.13,3.92c-2.95,0-5.43-2.54-6.11-4.74a12.93,12.93,0,0,1-9.61,4.74c-3.71,0-8-2.13-8-6.39,0-8,11.39-10,17.5-10.15Zm0,6.24c-3.71.21-8.72.69-8.72,5.56,0,2.34,1.24,5.42,4,5.42,3.15,0,4.73-2.12,4.73-4Z" transform="translate(-341.15 -383.37)"/><path class="cls-2" d="M718.09,773.28c2.95-5.08,6.59-6.45,11.26-6.45,4.18,0,7.75,1.23,7.75,6.59v19.07h4.26v1.93H724.2v-1.93h3.7V775c0-4.39-1-5.35-2.95-5.35-4.39,0-6.86,5.63-6.86,9.4v13.45h3.64v1.93H704.5v-1.93h4.39V769.16H704.5v-1.92h4.39c3.09,0,6.11-.28,9.2-.28Z" transform="translate(-341.15 -383.37)"/><path class="cls-2" d="M777.53,767.24h5.9v1.92h-5.9v23.33h4.94v1.93h-18.6v-1.93h4.19V769.16h-4.67v-1.92h4.67v-3.91c0-11.26,8.23-15.79,14.27-15.79,5.49,0,8,2.81,8,5.7s-1.65,4.8-4.53,4.8a3.85,3.85,0,0,1-4-3.77,3.2,3.2,0,0,1,.83-2.47c.41-.41.82-.62.82-1.31s-1.31-1-1.92-1c-3.85,0-4.05,3.85-4.05,6.87Z" transform="translate(-341.15 -383.37)"/><path class="cls-2" d="M821.11,781.38c0,8.85-7.62,14.07-16.47,14.07-9.82,0-16.47-6.52-16.47-14.07,0-9,8.23-14.55,16.47-14.55S821.11,772.39,821.11,781.38ZM810,774c0-4.18-.75-5.35-5.35-5.35-4.19,0-5.36,1.17-5.36,5.35v14.62c0,4,2.06,5.08,5.36,5.08s5.35-1.1,5.35-5.08Z" transform="translate(-341.15 -383.37)"/><path class="cls-2" d="M838.75,774.17h.14c1.23-3.91,3.91-7.34,8.44-7.34a5.33,5.33,0,0,1,5.7,5.69,4.75,4.75,0,0,1-4.88,4.81,4.05,4.05,0,0,1-4.32-4.12,6.94,6.94,0,0,1,.82-3.09c.21-.48-1.58-1.23-4.18,3.64a11.15,11.15,0,0,0-1.72,6.38v12.35h5.15v1.93H825.78v-1.93h3.5V769.16h-3.64v-1.92h3.64c3.16,0,6.31-.28,9.47-.28Z" transform="translate(-341.15 -383.37)"/><path class="cls-2" d="M880.48,759.62h4a47.81,47.81,0,0,0,5.42-.69v8.86h5.22v1.92H890v18.6c0,1.37-.34,3.5,1.65,3.5,2.67,0,3.16-2.13,3.57-4.32l2,.41c-1.17,5.56-4.88,7.55-10.3,7.55-6.38,0-6.38-2.75-6.38-6.18V769.71h-4.19v-1.92h4.19Z" transform="translate(-341.15 -383.37)"/><path class="cls-2" d="M935.8,792.49v1.93H918.5v-1.93h3.57V772.18c0-1.58-1.65-2.33-3-2.33-3.09,0-7,4.59-7,10.15v12.49H916v1.93H898.8v-1.93h3.78V750.15h-4.26v-1.92h4.26c3.16,0,6.31-.48,9.47-.69V774h.14c2.47-4.53,5.76-7.2,11.25-7.2,5.91,0,8.1,2.74,8.1,8.3v17.36Z" transform="translate(-341.15 -383.37)"/><path class="cls-2" d="M949.66,780v8.86c0,3.57,2,4.8,5.56,4.8,5.42,0,9.68-2.68,11.26-8l1.58.55c-1.79,6.38-6.94,9.27-13.32,9.27-8.51,0-16.19-4.81-16.19-14.14s8.23-14.48,16.05-14.48c6.8,0,13.32,4.73,13.32,11.87,0,1.65-2.13,1.3-3.23,1.3Zm9-1.78v-6.73c0-1.78-1.51-2.88-4.8-2.88-3,0-4.19,1.31-4.19,3.16v6.45Z" transform="translate(-341.15 -383.37)"/><path class="cls-2" d="M1021.59,748.78v31.15h4.6c3.43,0,2.13-2.6,2.4-5.07h1.86V786.8h-1.86c0-4.53.69-4.81-4-4.81h-3v10.37H1027v2.06h-22v-2.06h6.18V782H993c.14-2-.55-2.12.69-3.84l21.14-29.37Zm-10.36,31.15V756.67l-16.34,23.26Z" transform="translate(-341.15 -383.37)"/><path class="cls-2" d="M1038.68,759.62h4a48,48,0,0,0,5.43-.69v8.86h5.21v1.92h-5.21v18.6c0,1.37-.35,3.5,1.64,3.5,2.68,0,3.16-2.13,3.57-4.32l2,.41c-1.17,5.56-4.87,7.55-10.29,7.55-6.39,0-6.39-2.75-6.39-6.18V769.71h-4.18v-1.92h4.18Z" transform="translate(-341.15 -383.37)"/><path class="cls-2" d="M1094,792.49v1.93h-17.29v-1.93h3.56V772.18c0-1.58-1.64-2.33-3-2.33-3.08,0-7,4.59-7,10.15v12.49h3.91v1.93H1057v-1.93h3.77V750.15h-4.25v-1.92h4.25c3.16,0,6.32-.48,9.48-.69V774h.13c2.47-4.53,5.77-7.2,11.26-7.2,5.9,0,8.1,2.74,8.1,8.3v17.36Z" transform="translate(-341.15 -383.37)"/><path class="cls-2" d="M1123.45,750.63h-5.15v-2.06h25.53c11.94,0,21.34,10.5,21.34,22.58,0,15.51-10.77,22.1-19.76,22.92-2.27.21-4.6.35-6.93.35H1118.3v-2.06h5.15ZM1135,792.36h6.52c6,0,8.58-2.54,9.74-6.38a23.15,23.15,0,0,0,.76-6.8V763.05c0-5.42-.76-7.2-1.31-8.37-1.3-2.88-3.7-4-9.19-4H1135Z" transform="translate(-341.15 -383.37)"/><path class="cls-2" d="M1173.76,769.16H1169v-1.92h4.74c3.15,0,6.31-.28,9.47-.28v25.53h4.18v1.93H1169.3v-1.93h4.46Zm9.4-13.11a5,5,0,0,1-4.87,4.94,4.91,4.91,0,1,1,0-9.81A5,5,0,0,1,1183.16,756.05Z" transform="translate(-341.15 -383.37)"/><path class="cls-2" d="M1192,794.42h-1.71v-9.68h1.78c.9,4.87,5,8.92,10,8.92,2.41,0,6.46-1.58,6.46-4.66,0-3.51-3.23-3.23-5.91-3.51-6-.61-12.63-1.78-12.63-9.47,0-5.83,4.33-9.19,9.82-9.19,2.61,0,3.91.75,6.31,1.37.55.14,1.51-.76,2-1.37h1.38v7.89h-1.93c-1.44-4.19-3.22-6.11-7.75-6.11-2.13,0-6.32.76-6.32,3.71,0,1.51,2.61,2.67,5.63,2.88,7.69.55,13,2.4,13,9.47,0,5.49-3.16,10.78-10.15,10.78a15.37,15.37,0,0,1-8.1-2.48Z" transform="translate(-341.15 -383.37)"/><path class="cls-2" d="M1219.81,759.62h4a47.52,47.52,0,0,0,5.42-.69v8.86h5.22v1.92h-5.22v18.6c0,1.37-.34,3.5,1.65,3.5,2.68,0,3.16-2.13,3.57-4.32l2,.41c-1.17,5.56-4.87,7.55-10.3,7.55-6.38,0-6.38-2.75-6.38-6.18V769.71h-4.19v-1.92h4.19Z" transform="translate(-341.15 -383.37)"/><path class="cls-2" d="M1252.34,774.17h.14c1.24-3.91,3.91-7.34,8.44-7.34a5.33,5.33,0,0,1,5.7,5.69,4.75,4.75,0,0,1-4.87,4.81,4.06,4.06,0,0,1-4.33-4.12,6.83,6.83,0,0,1,.83-3.09c.2-.48-1.58-1.23-4.19,3.64a11.15,11.15,0,0,0-1.72,6.38v12.35h5.15v1.93h-18.12v-1.93h3.5V769.16h-3.64v-1.92h3.64c3.16,0,6.32-.28,9.47-.28Z" transform="translate(-341.15 -383.37)"/><path class="cls-2" d="M1272.87,769.16h-4.74v-1.92h4.74c3.15,0,6.31-.28,9.47-.28v25.53h4.18v1.93H1268.4v-1.93h4.47Zm9.4-13.11a5,5,0,0,1-4.88,4.94,4.91,4.91,0,1,1,0-9.81A5,5,0,0,1,1282.27,756.05Z" transform="translate(-341.15 -383.37)"/><path class="cls-2" d="M1317.82,786.59a12.73,12.73,0,0,1-12.08,8.86c-7.55,0-15.44-6-15.44-14,0-8.44,7.55-14.61,15.65-14.61,7.54,0,10.84,4.8,10.84,7.48a4.67,4.67,0,1,1-9.33,0,4,4,0,0,1,1.16-2.68,1.92,1.92,0,0,0,.9-1.51c0-1.37-2.55-1.51-3.64-1.51-3,0-5.08.82-5.08,7.34v8.86c0,7.07.89,8.85,5.28,8.85,5.36,0,8.17-3.09,10.23-7.89Z" transform="translate(-341.15 -383.37)"/><path class="cls-2" d="M1326.54,759.62h4a48.1,48.1,0,0,0,5.42-.69v8.86h5.21v1.92H1336v18.6c0,1.37-.34,3.5,1.65,3.5,2.67,0,3.15-2.13,3.56-4.32l2,.41c-1.16,5.56-4.87,7.55-10.29,7.55-6.38,0-6.38-2.75-6.38-6.18V769.71h-4.19v-1.92h4.19Z" transform="translate(-341.15 -383.37)"/><path class="cls-2" d="M1400.52,781.38c0,8.85-7.61,14.07-16.47,14.07-9.81,0-16.47-6.52-16.47-14.07,0-9,8.24-14.55,16.47-14.55S1400.52,772.39,1400.52,781.38ZM1389.41,774c0-4.18-.76-5.35-5.36-5.35-4.18,0-5.35,1.17-5.35,5.35v14.62c0,4,2.06,5.08,5.35,5.08s5.36-1.1,5.36-5.08Z" transform="translate(-341.15 -383.37)"/><path class="cls-2" d="M1418,767.24h5.9v1.92H1418v23.33h4.94v1.93h-18.6v-1.93h4.19V769.16h-4.67v-1.92h4.67v-3.91c0-11.26,8.23-15.79,14.27-15.79,5.49,0,8,2.81,8,5.7s-1.64,4.8-4.53,4.8a3.85,3.85,0,0,1-4-3.77,3.2,3.2,0,0,1,.83-2.47c.41-.41.82-.62.82-1.31s-1.3-1-1.92-1c-3.84,0-4,3.85-4,6.87Z" transform="translate(-341.15 -383.37)"/><path class="cls-2" d="M1496.89,792.36h5.69v2.06h-22.85v-2.06h6.11V751h-.14l-13.38,43.45h-2.47l-13.11-43.58h-.14v37.4c0,4.53,2.47,4.12,6.45,4.12v2.06h-14.62v-2.06c3.78,0,6.11.41,6.11-4.12V750.63h-6.11v-2.06h19.29l8,27.66,8.3-27.66h18.6v2.06h-5.69Z" transform="translate(-341.15 -383.37)"/><path class="cls-2" d="M1524.62,774.31c0-3.57.27-5.7-4.81-5.7-.75,0-3.63.41-3.63,1.65a3.83,3.83,0,0,0,.68,1.44,3.58,3.58,0,0,1,.69,1.72c0,2.88-1.44,4.8-4.39,4.8a4.12,4.12,0,0,1-4.4-4.12c0-5.42,7.42-7.27,11.67-7.27,8.85,0,12.63,2.54,12.63,4.53V788c0,1.44.07,3.16,2,3.16a2.56,2.56,0,0,0,1.71-1l1.24,1.3a7.45,7.45,0,0,1-7.14,3.92c-2.95,0-5.42-2.54-6.11-4.74a12.92,12.92,0,0,1-9.6,4.74c-3.71,0-8-2.13-8-6.39,0-8,11.39-10,17.5-10.15Zm0,6.24c-3.71.21-8.72.69-8.72,5.56,0,2.34,1.24,5.42,4,5.42,3.16,0,4.74-2.12,4.74-4Z" transform="translate(-341.15 -383.37)"/><path class="cls-2" d="M1542.67,794.42H1541v-9.68h1.79c.89,4.87,5,8.92,10,8.92,2.4,0,6.45-1.58,6.45-4.66,0-3.51-3.23-3.23-5.9-3.51-6-.61-12.63-1.78-12.63-9.47,0-5.83,4.32-9.19,9.81-9.19,2.61,0,3.92.75,6.32,1.37.55.14,1.51-.76,2-1.37h1.37v7.89h-1.92c-1.44-4.19-3.23-6.11-7.76-6.11-2.12,0-6.31.76-6.31,3.71,0,1.51,2.61,2.67,5.63,2.88,7.68.55,13,2.4,13,9.47,0,5.49-3.16,10.78-10.16,10.78a15.42,15.42,0,0,1-8.1-2.48Z" transform="translate(-341.15 -383.37)"/><path class="cls-2" d="M1569.37,794.42h-1.72v-9.68h1.79c.89,4.87,5,8.92,10,8.92,2.4,0,6.45-1.58,6.45-4.66,0-3.51-3.23-3.23-5.9-3.51-6-.61-12.63-1.78-12.63-9.47,0-5.83,4.32-9.19,9.81-9.19,2.61,0,3.91.75,6.31,1.37.55.14,1.51-.76,2-1.37h1.37v7.89H1585c-1.45-4.19-3.23-6.11-7.76-6.11-2.13,0-6.31.76-6.31,3.71,0,1.51,2.61,2.67,5.63,2.88,7.68.55,13,2.4,13,9.47,0,5.49-3.15,10.78-10.15,10.78a15.37,15.37,0,0,1-8.1-2.48Z" transform="translate(-341.15 -383.37)"/><path class="cls-2" d="M1612.33,774.31c0-3.57.28-5.7-4.8-5.7-.76,0-3.64.41-3.64,1.65a3.73,3.73,0,0,0,.69,1.44,3.66,3.66,0,0,1,.68,1.72c0,2.88-1.44,4.8-4.39,4.8a4.11,4.11,0,0,1-4.39-4.12c0-5.42,7.41-7.27,11.67-7.27,8.85,0,12.62,2.54,12.62,4.53V788c0,1.44.07,3.16,2,3.16a2.56,2.56,0,0,0,1.72-1l1.24,1.3a7.47,7.47,0,0,1-7.14,3.92c-2.95,0-5.42-2.54-6.11-4.74a12.93,12.93,0,0,1-9.61,4.74c-3.71,0-8-2.13-8-6.39,0-8,11.39-10,17.5-10.15Zm0,6.24c-3.7.21-8.71.69-8.71,5.56,0,2.34,1.23,5.42,4,5.42,3.15,0,4.73-2.12,4.73-4Z" transform="translate(-341.15 -383.37)"/><path class="cls-2" d="M1657.08,786.59a12.73,12.73,0,0,1-12.08,8.86c-7.55,0-15.44-6-15.44-14,0-8.44,7.55-14.61,15.65-14.61,7.55,0,10.84,4.8,10.84,7.48a4.67,4.67,0,1,1-9.33,0,4.05,4.05,0,0,1,1.17-2.68,1.91,1.91,0,0,0,.89-1.51c0-1.37-2.54-1.51-3.64-1.51-3,0-5.08.82-5.08,7.34v8.86c0,7.07.89,8.85,5.29,8.85,5.35,0,8.16-3.09,10.22-7.89Z" transform="translate(-341.15 -383.37)"/><path class="cls-2" d="M1698.26,792.49v1.93H1681v-1.93h3.57V772.18c0-1.58-1.65-2.33-3-2.33-3.09,0-7,4.59-7,10.15v12.49h3.91v1.93h-17.16v-1.93h3.78V750.15h-4.26v-1.92h4.26c3.15,0,6.31-.48,9.47-.69V774h.13c2.47-4.53,5.77-7.2,11.26-7.2,5.9,0,8.1,2.74,8.1,8.3v17.36Z" transform="translate(-341.15 -383.37)"/><path class="cls-2" d="M1722.49,789.2h-.14c-1.64,4.39-5.9,6.25-10.5,6.25-8.44,0-8.3-3.85-8.3-10.64V769.16h-4.74v-1.92h4.74c3.16,0,6.31-.28,9.47-.28v19.15c0,3.78-.34,6.52,2.75,6.52,3.84,0,6.72-5.35,6.72-7.48v-16h-4.73v-1.92h4.73c3.16,0,6.32-.28,9.47-.28v25.53h4.6v1.93H1732c-3.15,0-6.31.68-9.47.68Z" transform="translate(-341.15 -383.37)"/><path class="cls-2" d="M1741,794.42h-1.71v-9.68h1.78c.89,4.87,5,8.92,10,8.92,2.41,0,6.45-1.58,6.45-4.66,0-3.51-3.22-3.23-5.9-3.51-6-.61-12.63-1.78-12.63-9.47,0-5.83,4.33-9.19,9.82-9.19,2.61,0,3.91.75,6.31,1.37.55.14,1.51-.76,2-1.37h1.37v7.89h-1.92c-1.44-4.19-3.22-6.11-7.75-6.11-2.13,0-6.32.76-6.32,3.71,0,1.51,2.61,2.67,5.63,2.88,7.69.55,13,2.4,13,9.47,0,5.49-3.16,10.78-10.16,10.78a15.42,15.42,0,0,1-8.1-2.48Z" transform="translate(-341.15 -383.37)"/><path class="cls-2" d="M1777,780v8.86c0,3.57,2,4.8,5.56,4.8,5.42,0,9.68-2.68,11.25-8l1.58.55c-1.78,6.38-6.93,9.27-13.31,9.27-8.51,0-16.2-4.81-16.2-14.14s8.24-14.48,16.06-14.48c6.79,0,13.31,4.73,13.31,11.87,0,1.65-2.12,1.3-3.22,1.3Zm9-1.78v-6.73c0-1.78-1.51-2.88-4.8-2.88-3,0-4.19,1.31-4.19,3.16v6.45Z" transform="translate(-341.15 -383.37)"/><path class="cls-2" d="M1803.14,759.62h4a47.81,47.81,0,0,0,5.42-.69v8.86h5.22v1.92h-5.22v18.6c0,1.37-.34,3.5,1.65,3.5,2.67,0,3.15-2.13,3.57-4.32l2,.41c-1.17,5.56-4.88,7.55-10.3,7.55-6.38,0-6.38-2.75-6.38-6.18V769.71H1799v-1.92h4.19Z" transform="translate(-341.15 -383.37)"/><path class="cls-2" d="M1826,759.62h4a48,48,0,0,0,5.43-.69v8.86h5.21v1.92h-5.21v18.6c0,1.37-.35,3.5,1.64,3.5,2.68,0,3.16-2.13,3.57-4.32l2,.41c-1.17,5.56-4.87,7.55-10.29,7.55-6.39,0-6.39-2.75-6.39-6.18V769.71h-4.18v-1.92H1826Z" transform="translate(-341.15 -383.37)"/><path class="cls-2" d="M1847.75,794.42H1846v-9.68h1.79c.89,4.87,5,8.92,10,8.92,2.4,0,6.45-1.58,6.45-4.66,0-3.51-3.23-3.23-5.9-3.51-6-.61-12.63-1.78-12.63-9.47,0-5.83,4.32-9.19,9.81-9.19,2.61,0,3.92.75,6.32,1.37.55.14,1.51-.76,2-1.37h1.37v7.89h-1.92c-1.44-4.19-3.23-6.11-7.76-6.11-2.12,0-6.31.76-6.31,3.71,0,1.51,2.61,2.67,5.63,2.88,7.68.55,13,2.4,13,9.47,0,5.49-3.16,10.78-10.16,10.78a15.42,15.42,0,0,1-8.1-2.48Z" transform="translate(-341.15 -383.37)"/></svg>